<?xml version="1.0" encoding="UTF-8" standalone="no"?>
<!DOCTYPE svg PUBLIC "-//W3C//DTD SVG 1.1//EN"
 "http://www.w3.org/Graphics/SVG/1.1/DTD/svg11.dtd">
<!-- Generated by graphviz version 2.43.0 (0)
 -->
<!-- Title: ProjectDependencies Pages: 1 -->
<svg width="2359pt" height="506pt"
 viewBox="0.00 0.00 2359.00 506.00" xmlns="http://www.w3.org/2000/svg" xmlns:xlink="http://www.w3.org/1999/xlink">
<g id="graph0" class="graph" transform="scale(1 1) rotate(0) translate(4 502)">
<title>ProjectDependencies</title>
<polygon fill="white" stroke="transparent" points="-4,4 -4,-502 2355,-502 2355,4 -4,4"/>
<g id="clust1" class="cluster">
<title>cluster_foundation</title>
<polygon fill="none" stroke="#cccccc" stroke-dasharray="5,2" points="1012,-415 1012,-490 1196,-490 1196,-415 1012,-415"/>
<text text-anchor="middle" x="1104" y="-422.8" font-family="Times,serif" font-size="14.00">Foundation</text>
</g>
<g id="clust2" class="cluster">
<title>cluster_core</title>
<polygon fill="none" stroke="#cccccc" stroke-dasharray="5,2" points="889,-332 889,-407 1312,-407 1312,-332 889,-332"/>
<text text-anchor="middle" x="1100.5" y="-339.8" font-family="Times,serif" font-size="14.00">Core</text>
</g>
<g id="clust3" class="cluster">
<title>cluster_layer2</title>
<polygon fill="none" stroke="#cccccc" stroke-dasharray="5,2" points="8,-249 8,-324 434,-324 434,-249 8,-249"/>
<text text-anchor="middle" x="221" y="-256.8" font-family="Times,serif" font-size="14.00">Serialization &amp; Builtins</text>
</g>
<g id="clust4" class="cluster">
<title>cluster_packages</title>
<polygon fill="none" stroke="#cccccc" stroke-dasharray="5,2" points="510,-249 510,-324 683,-324 683,-249 510,-249"/>
<text text-anchor="middle" x="596.5" y="-256.8" font-family="Times,serif" font-size="14.00">Package Management</text>
</g>
<g id="clust5" class="cluster">
<title>cluster_parser</title>
<polygon fill="none" stroke="#cccccc" stroke-dasharray="5,2" points="1223,-249 1223,-324 1487,-324 1487,-249 1223,-249"/>
<text text-anchor="middle" x="1355" y="-256.8" font-family="Times,serif" font-size="14.00">Parser &amp; Dev Tools</text>
</g>
<g id="clust6" class="cluster">
<title>cluster_cloud</title>
<polygon fill="none" stroke="#cccccc" stroke-dasharray="5,2" points="1793,-166 1793,-324 2143,-324 2143,-166 1793,-166"/>
<text text-anchor="middle" x="1968" y="-173.8" font-family="Times,serif" font-size="14.00">Cloud Infrastructure</text>
</g>
<g id="clust7" class="cluster">
<title>cluster_cloudexec</title>
<polygon fill="none" stroke="#cccccc" stroke-dasharray="5,2" points="1163,-166 1163,-241 1487,-241 1487,-166 1163,-166"/>
<text text-anchor="middle" x="1325" y="-173.8" font-family="Times,serif" font-size="14.00">Cloud Execution</text>
</g>
<g id="clust8" class="cluster">
<title>cluster_clihost</title>
<polygon fill="none" stroke="#cccccc" stroke-dasharray="5,2" points="617,-166 617,-241 743,-241 743,-166 617,-166"/>
<text text-anchor="middle" x="680" y="-173.8" font-family="Times,serif" font-size="14.00">CLI Host</text>
</g>
<g id="clust9" class="cluster">
<title>cluster_executables</title>
<polygon fill="none" stroke="#cccccc" stroke-dasharray="5,2" points="662,-83 662,-158 1295,-158 1295,-83 662,-83"/>
<text text-anchor="middle" x="978.5" y="-90.8" font-family="Times,serif" font-size="14.00">Executables</text>
</g>
<g id="clust10" class="cluster">
<title>cluster_tests</title>
<polygon fill="none" stroke="#cccccc" stroke-dasharray="5,2" points="532,-8 532,-158 622,-158 622,-8 532,-8"/>
<text text-anchor="middle" x="577" y="-15.8" font-family="Times,serif" font-size="14.00">Tests</text>
</g>
<!-- Prelude -->
<g id="node1" class="node">
<title>Prelude</title>
<path fill="#e8f5e9" stroke="black" d="M1176,-482C1176,-482 1132,-482 1132,-482 1126,-482 1120,-476 1120,-470 1120,-470 1120,-458 1120,-458 1120,-452 1126,-446 1132,-446 1132,-446 1176,-446 1176,-446 1182,-446 1188,-452 1188,-458 1188,-458 1188,-470 1188,-470 1188,-476 1182,-482 1176,-482"/>
<text text-anchor="middle" x="1154" y="-460.3" font-family="Helvetica,sans-Serif" font-size="14.00">Prelude</text>
</g>
<!-- LibConfig -->
<g id="node2" class="node">
<title>LibConfig</title>
<path fill="#e8f5e9" stroke="black" d="M1090,-482C1090,-482 1032,-482 1032,-482 1026,-482 1020,-476 1020,-470 1020,-470 1020,-458 1020,-458 1020,-452 1026,-446 1032,-446 1032,-446 1090,-446 1090,-446 1096,-446 1102,-452 1102,-458 1102,-458 1102,-470 1102,-470 1102,-476 1096,-482 1090,-482"/>
<text text-anchor="middle" x="1061" y="-460.3" font-family="Helvetica,sans-Serif" font-size="14.00">LibConfig</text>
</g>
<!-- LibExecution -->
<g id="node3" class="node">
<title>LibExecution</title>
<path fill="#e3f2fd" stroke="black" d="M989,-399C989,-399 909,-399 909,-399 903,-399 897,-393 897,-387 897,-387 897,-375 897,-375 897,-369 903,-363 909,-363 909,-363 989,-363 989,-363 995,-363 1001,-369 1001,-375 1001,-375 1001,-387 1001,-387 1001,-393 995,-399 989,-399"/>
<text text-anchor="middle" x="949" y="-377.3" font-family="Helvetica,sans-Serif" font-size="14.00">LibExecution</text>
</g>
<!-- LibExecution&#45;&gt;Prelude -->
<g id="edge1" class="edge">
<title>LibExecution&#45;&gt;Prelude</title>
<path fill="none" stroke="#666666" d="M985.49,-399.09C993.42,-402.2 1001.87,-405.06 1010,-407 1031.9,-412.22 1090.82,-405.01 1111,-415 1121.33,-420.12 1130.32,-428.89 1137.36,-437.55"/>
<polygon fill="#666666" stroke="#666666" points="1134.69,-439.82 1143.5,-445.7 1140.28,-435.61 1134.69,-439.82"/>
</g>
<!-- LibTreeSitter -->
<g id="node4" class="node">
<title>LibTreeSitter</title>
<path fill="#e3f2fd" stroke="black" d="M1291.5,-399C1291.5,-399 1212.5,-399 1212.5,-399 1206.5,-399 1200.5,-393 1200.5,-387 1200.5,-387 1200.5,-375 1200.5,-375 1200.5,-369 1206.5,-363 1212.5,-363 1212.5,-363 1291.5,-363 1291.5,-363 1297.5,-363 1303.5,-369 1303.5,-375 1303.5,-375 1303.5,-387 1303.5,-387 1303.5,-393 1297.5,-399 1291.5,-399"/>
<text text-anchor="middle" x="1252" y="-377.3" font-family="Helvetica,sans-Serif" font-size="14.00">LibTreeSitter</text>
</g>
<!-- LibTreeSitter&#45;&gt;Prelude -->
<g id="edge2" class="edge">
<title>LibTreeSitter&#45;&gt;Prelude</title>
<path fill="none" stroke="#666666" d="M1231.22,-399.18C1217.05,-410.88 1198.12,-426.53 1182.55,-439.4"/>
<polygon fill="#666666" stroke="#666666" points="1180.23,-436.78 1174.75,-445.85 1184.69,-442.17 1180.23,-436.78"/>
</g>
<!-- LibDB -->
<g id="node5" class="node">
<title>LibDB</title>
<path fill="#e3f2fd" stroke="black" d="M1170.5,-399C1170.5,-399 1137.5,-399 1137.5,-399 1131.5,-399 1125.5,-393 1125.5,-387 1125.5,-387 1125.5,-375 1125.5,-375 1125.5,-369 1131.5,-363 1137.5,-363 1137.5,-363 1170.5,-363 1170.5,-363 1176.5,-363 1182.5,-369 1182.5,-375 1182.5,-375 1182.5,-387 1182.5,-387 1182.5,-393 1176.5,-399 1170.5,-399"/>
<text text-anchor="middle" x="1154" y="-377.3" font-family="Helvetica,sans-Serif" font-size="14.00">LibDB</text>
</g>
<!-- LibDB&#45;&gt;Prelude -->
<g id="edge3" class="edge">
<title>LibDB&#45;&gt;Prelude</title>
<path fill="none" stroke="#666666" d="M1154,-399.18C1154,-409.81 1154,-423.69 1154,-435.8"/>
<polygon fill="#666666" stroke="#666666" points="1150.5,-435.85 1154,-445.85 1157.5,-435.85 1150.5,-435.85"/>
</g>
<!-- LibDB&#45;&gt;LibConfig -->
<g id="edge4" class="edge">
<title>LibDB&#45;&gt;LibConfig</title>
<path fill="none" stroke="#666666" d="M1130.87,-399.01C1124.33,-404.02 1117.28,-409.6 1111,-415 1102.51,-422.29 1093.59,-430.62 1085.67,-438.27"/>
<polygon fill="#666666" stroke="#666666" points="1082.85,-436.14 1078.14,-445.63 1087.74,-441.14 1082.85,-436.14"/>
</g>
<!-- LibService -->
<g id="node6" class="node">
<title>LibService</title>
<path fill="#e3f2fd" stroke="black" d="M1095,-399C1095,-399 1031,-399 1031,-399 1025,-399 1019,-393 1019,-387 1019,-387 1019,-375 1019,-375 1019,-369 1025,-363 1031,-363 1031,-363 1095,-363 1095,-363 1101,-363 1107,-369 1107,-375 1107,-375 1107,-387 1107,-387 1107,-393 1101,-399 1095,-399"/>
<text text-anchor="middle" x="1063" y="-377.3" font-family="Helvetica,sans-Serif" font-size="14.00">LibService</text>
</g>
<!-- LibService&#45;&gt;Prelude -->
<g id="edge5" class="edge">
<title>LibService&#45;&gt;Prelude</title>
<path fill="none" stroke="#666666" d="M1090.25,-399.08C1097.26,-403.91 1104.62,-409.39 1111,-415 1118.77,-421.84 1126.55,-430 1133.3,-437.64"/>
<polygon fill="#666666" stroke="#666666" points="1131.01,-440.34 1140.19,-445.64 1136.31,-435.78 1131.01,-440.34"/>
</g>
<!-- LibService&#45;&gt;LibConfig -->
<g id="edge6" class="edge">
<title>LibService&#45;&gt;LibConfig</title>
<path fill="none" stroke="#666666" d="M1062.58,-399.18C1062.31,-409.81 1061.97,-423.69 1061.67,-435.8"/>
<polygon fill="#666666" stroke="#666666" points="1058.17,-435.76 1061.42,-445.85 1065.17,-435.94 1058.17,-435.76"/>
</g>
<!-- LibBinarySerialization -->
<g id="node7" class="node">
<title>LibBinarySerialization</title>
<path fill="#fff3e0" stroke="black" d="M267.5,-316C267.5,-316 124.5,-316 124.5,-316 118.5,-316 112.5,-310 112.5,-304 112.5,-304 112.5,-292 112.5,-292 112.5,-286 118.5,-280 124.5,-280 124.5,-280 267.5,-280 267.5,-280 273.5,-280 279.5,-286 279.5,-292 279.5,-292 279.5,-304 279.5,-304 279.5,-310 273.5,-316 267.5,-316"/>
<text text-anchor="middle" x="196" y="-294.3" font-family="Helvetica,sans-Serif" font-size="14.00">LibBinarySerialization</text>
</g>
<!-- LibBinarySerialization&#45;&gt;Prelude -->
<g id="edge7" class="edge">
<title>LibBinarySerialization&#45;&gt;Prelude</title>
<path fill="none" stroke="#666666" d="M222.08,-316.15C262.76,-341.78 344.7,-389.01 422,-407 459.28,-415.68 1076.14,-399.18 1111,-415 1121.65,-419.83 1130.78,-428.73 1137.85,-437.56"/>
<polygon fill="#666666" stroke="#666666" points="1135.22,-439.9 1143.98,-445.87 1140.86,-435.75 1135.22,-439.9"/>
</g>
<!-- LibBinarySerialization&#45;&gt;LibExecution -->
<g id="edge8" class="edge">
<title>LibBinarySerialization&#45;&gt;LibExecution</title>
<path fill="none" stroke="#666666" d="M253.19,-316.08C264.95,-319.11 277.31,-321.95 289,-324 506.42,-362.13 768.87,-374.57 886.57,-378.4"/>
<polygon fill="#666666" stroke="#666666" points="886.72,-381.91 896.83,-378.72 886.94,-374.91 886.72,-381.91"/>
</g>
<!-- BuiltinExecution -->
<g id="node8" class="node">
<title>BuiltinExecution</title>
<path fill="#fff3e0" stroke="black" d="M414,-316C414,-316 310,-316 310,-316 304,-316 298,-310 298,-304 298,-304 298,-292 298,-292 298,-286 304,-280 310,-280 310,-280 414,-280 414,-280 420,-280 426,-286 426,-292 426,-292 426,-304 426,-304 426,-310 420,-316 414,-316"/>
<text text-anchor="middle" x="362" y="-294.3" font-family="Helvetica,sans-Serif" font-size="14.00">BuiltinExecution</text>
</g>
<!-- BuiltinExecution&#45;&gt;Prelude -->
<g id="edge9" class="edge">
<title>BuiltinExecution&#45;&gt;Prelude</title>
<path fill="none" stroke="#666666" d="M393.27,-316.1C441.96,-341.68 539.57,-388.83 629,-407 655.25,-412.33 1086.64,-403.87 1111,-415 1121.64,-419.86 1130.77,-428.76 1137.84,-437.59"/>
<polygon fill="#666666" stroke="#666666" points="1135.21,-439.93 1143.97,-445.9 1140.84,-435.77 1135.21,-439.93"/>
</g>
<!-- BuiltinExecution&#45;&gt;LibExecution -->
<g id="edge10" class="edge">
<title>BuiltinExecution&#45;&gt;LibExecution</title>
<path fill="none" stroke="#666666" d="M409.86,-316C419.73,-319.04 430.13,-321.9 440,-324 598.77,-357.82 790,-371.88 886.62,-377.17"/>
<polygon fill="#666666" stroke="#666666" points="886.62,-380.67 896.79,-377.71 886.99,-373.68 886.62,-380.67"/>
</g>
<!-- BuiltinExecution&#45;&gt;LibTreeSitter -->
<g id="edge11" class="edge">
<title>BuiltinExecution&#45;&gt;LibTreeSitter</title>
<path fill="none" stroke="#666666" d="M426.22,-312.42C451.03,-317 479.72,-321.58 506,-324 543.95,-327.49 1156.11,-319.17 1192,-332 1205.81,-336.94 1218.83,-346.49 1229.19,-355.78"/>
<polygon fill="#666666" stroke="#666666" points="1226.89,-358.42 1236.56,-362.76 1231.7,-353.34 1226.89,-358.42"/>
</g>
<!-- BuiltinCli -->
<g id="node9" class="node">
<title>BuiltinCli</title>
<path fill="#fff3e0" stroke="black" d="M82,-316C82,-316 28,-316 28,-316 22,-316 16,-310 16,-304 16,-304 16,-292 16,-292 16,-286 22,-280 28,-280 28,-280 82,-280 82,-280 88,-280 94,-286 94,-292 94,-292 94,-304 94,-304 94,-310 88,-316 82,-316"/>
<text text-anchor="middle" x="55" y="-294.3" font-family="Helvetica,sans-Serif" font-size="14.00">BuiltinCli</text>
</g>
<!-- BuiltinCli&#45;&gt;Prelude -->
<g id="edge12" class="edge">
<title>BuiltinCli&#45;&gt;Prelude</title>
<path fill="none" stroke="#666666" d="M83.73,-316.07C89.92,-319.14 96.54,-321.99 103,-324 130.8,-332.64 141.76,-319.41 168,-332 211.07,-352.67 200.83,-388.8 245,-407 289.49,-425.32 1067.16,-395.17 1111,-415 1121.66,-419.82 1130.79,-428.71 1137.85,-437.55"/>
<polygon fill="#666666" stroke="#666666" points="1135.23,-439.89 1143.98,-445.86 1140.87,-435.74 1135.23,-439.89"/>
</g>
<!-- BuiltinCli&#45;&gt;LibConfig -->
<g id="edge14" class="edge">
<title>BuiltinCli&#45;&gt;LibConfig</title>
<path fill="none" stroke="#666666" d="M73.24,-316.32C101.05,-341.5 156.89,-387.35 214,-407 362.38,-458.04 849.98,-462.92 1009.79,-463.11"/>
<polygon fill="#666666" stroke="#666666" points="1009.83,-466.61 1019.83,-463.12 1009.83,-459.61 1009.83,-466.61"/>
</g>
<!-- BuiltinCli&#45;&gt;LibExecution -->
<g id="edge13" class="edge">
<title>BuiltinCli&#45;&gt;LibExecution</title>
<path fill="none" stroke="#666666" d="M82.87,-316.01C89.27,-319.21 96.21,-322.13 103,-324 132.83,-332.22 211.12,-330.06 242,-332 480.26,-346.94 763.53,-366.81 886.68,-375.55"/>
<polygon fill="#666666" stroke="#666666" points="886.46,-379.05 896.68,-376.26 886.96,-372.06 886.46,-379.05"/>
</g>
<!-- LibPackageManager -->
<g id="node10" class="node">
<title>LibPackageManager</title>
<path fill="#fce4ec" stroke="black" d="M662,-316C662,-316 532,-316 532,-316 526,-316 520,-310 520,-304 520,-304 520,-292 520,-292 520,-286 526,-280 532,-280 532,-280 662,-280 662,-280 668,-280 674,-286 674,-292 674,-292 674,-304 674,-304 674,-310 668,-316 662,-316"/>
<text text-anchor="middle" x="597" y="-294.3" font-family="Helvetica,sans-Serif" font-size="14.00">LibPackageManager</text>
</g>
<!-- LibPackageManager&#45;&gt;Prelude -->
<g id="edge15" class="edge">
<title>LibPackageManager&#45;&gt;Prelude</title>
<path fill="none" stroke="#666666" d="M617.1,-316.15C622.47,-321.06 628.13,-326.57 633,-332 660.59,-362.78 651.31,-387.97 688,-407 729.73,-428.64 1068.26,-395.42 1111,-415 1121.64,-419.87 1130.76,-428.78 1137.83,-437.6"/>
<polygon fill="#666666" stroke="#666666" points="1135.21,-439.94 1143.96,-445.91 1140.84,-435.78 1135.21,-439.94"/>
</g>
<!-- LibPackageManager&#45;&gt;LibConfig -->
<g id="edge18" class="edge">
<title>LibPackageManager&#45;&gt;LibConfig</title>
<path fill="none" stroke="#666666" d="M597.92,-316.36C600.21,-340.74 608.2,-384.63 636,-407 692.49,-452.46 909.21,-461.16 1009.51,-462.72"/>
<polygon fill="#666666" stroke="#666666" points="1009.66,-466.22 1019.71,-462.86 1009.76,-459.23 1009.66,-466.22"/>
</g>
<!-- LibPackageManager&#45;&gt;LibExecution -->
<g id="edge16" class="edge">
<title>LibPackageManager&#45;&gt;LibExecution</title>
<path fill="none" stroke="#666666" d="M671.22,-316.08C735.32,-330.83 826.87,-351.9 887.1,-365.76"/>
<polygon fill="#666666" stroke="#666666" points="886.32,-369.17 896.85,-368 887.89,-362.35 886.32,-369.17"/>
</g>
<!-- LibPackageManager&#45;&gt;LibDB -->
<g id="edge19" class="edge">
<title>LibPackageManager&#45;&gt;LibDB</title>
<path fill="none" stroke="#666666" d="M674.06,-300.46C809.11,-303.52 1077.91,-312.06 1116,-332 1125.6,-337.03 1133.59,-345.67 1139.72,-354.25"/>
<polygon fill="#666666" stroke="#666666" points="1136.82,-356.21 1145.22,-362.67 1142.68,-352.38 1136.82,-356.21"/>
</g>
<!-- LibPackageManager&#45;&gt;LibBinarySerialization -->
<g id="edge17" class="edge">
<title>LibPackageManager&#45;&gt;LibBinarySerialization</title>
<path fill="none" stroke="#666666" d="M552.61,-279.9C519.25,-267.3 472.07,-251.63 429,-245 400.23,-240.57 326.48,-238.96 298,-245 273.73,-250.15 248.98,-262.8 229.94,-274.44"/>
<polygon fill="#666666" stroke="#666666" points="227.93,-271.57 221.35,-279.87 231.67,-277.49 227.93,-271.57"/>
</g>
<!-- LibParser -->
<g id="node11" class="node">
<title>LibParser</title>
<path fill="#f3e5f5" stroke="black" d="M1467,-316C1467,-316 1411,-316 1411,-316 1405,-316 1399,-310 1399,-304 1399,-304 1399,-292 1399,-292 1399,-286 1405,-280 1411,-280 1411,-280 1467,-280 1467,-280 1473,-280 1479,-286 1479,-292 1479,-292 1479,-304 1479,-304 1479,-310 1473,-316 1467,-316"/>
<text text-anchor="middle" x="1439" y="-294.3" font-family="Helvetica,sans-Serif" font-size="14.00">LibParser</text>
</g>
<!-- LibParser&#45;&gt;Prelude -->
<g id="edge20" class="edge">
<title>LibParser&#45;&gt;Prelude</title>
<path fill="none" stroke="#666666" d="M1426.91,-316.2C1409.32,-339.98 1374.45,-382.7 1335,-407 1292.32,-433.29 1236.32,-448.12 1197.98,-455.83"/>
<polygon fill="#666666" stroke="#666666" points="1197.3,-452.39 1188.15,-457.72 1198.63,-459.26 1197.3,-452.39"/>
</g>
<!-- LibParser&#45;&gt;LibExecution -->
<g id="edge21" class="edge">
<title>LibParser&#45;&gt;LibExecution</title>
<path fill="none" stroke="#666666" d="M1410.83,-316.07C1404.22,-319.31 1397.04,-322.23 1390,-324 1349.04,-334.3 1049.76,-317.76 1010,-332 996.05,-337 982.83,-346.56 972.28,-355.84"/>
<polygon fill="#666666" stroke="#666666" points="969.73,-353.44 964.77,-362.8 974.49,-358.57 969.73,-353.44"/>
</g>
<!-- LibParser&#45;&gt;LibPackageManager -->
<g id="edge22" class="edge">
<title>LibParser&#45;&gt;LibPackageManager</title>
<path fill="none" stroke="#666666" d="M1427.29,-279.9C1417.05,-266.25 1400.75,-249.19 1381,-245 1347.74,-237.94 1261.97,-243.58 1228,-245 1033.29,-253.16 805.68,-275.43 684.09,-288.36"/>
<polygon fill="#666666" stroke="#666666" points="683.66,-284.89 674.09,-289.43 684.41,-291.85 683.66,-284.89"/>
</g>
<!-- DvalReprDeveloper -->
<g id="node12" class="node">
<title>DvalReprDeveloper</title>
<path fill="#f3e5f5" stroke="black" d="M1369,-316C1369,-316 1243,-316 1243,-316 1237,-316 1231,-310 1231,-304 1231,-304 1231,-292 1231,-292 1231,-286 1237,-280 1243,-280 1243,-280 1369,-280 1369,-280 1375,-280 1381,-286 1381,-292 1381,-292 1381,-304 1381,-304 1381,-310 1375,-316 1369,-316"/>
<text text-anchor="middle" x="1306" y="-294.3" font-family="Helvetica,sans-Serif" font-size="14.00">DvalReprDeveloper</text>
</g>
<!-- DvalReprDeveloper&#45;&gt;Prelude -->
<g id="edge23" class="edge">
<title>DvalReprDeveloper&#45;&gt;Prelude</title>
<path fill="none" stroke="#666666" d="M1313.95,-316.14C1323.29,-339.08 1335.23,-380.01 1316,-407 1289.56,-444.11 1236.8,-456.86 1198.66,-461.12"/>
<polygon fill="#666666" stroke="#666666" points="1197.95,-457.67 1188.33,-462.1 1198.61,-464.64 1197.95,-457.67"/>
</g>
<!-- DvalReprDeveloper&#45;&gt;LibExecution -->
<g id="edge24" class="edge">
<title>DvalReprDeveloper&#45;&gt;LibExecution</title>
<path fill="none" stroke="#666666" d="M1230.8,-314.88C1211.7,-318.4 1191.16,-321.75 1172,-324 1136.2,-328.2 1043.76,-319.37 1010,-332 996.12,-337.19 982.91,-346.78 972.35,-356.03"/>
<polygon fill="#666666" stroke="#666666" points="969.81,-353.61 964.83,-362.96 974.56,-358.76 969.81,-353.61"/>
</g>
<!-- DvalReprDeveloper&#45;&gt;LibPackageManager -->
<g id="edge25" class="edge">
<title>DvalReprDeveloper&#45;&gt;LibPackageManager</title>
<path fill="none" stroke="#666666" d="M1230.73,-298C1048.57,-298 866.41,-298 684.26,-298"/>
<polygon fill="#666666" stroke="#666666" points="684.2,-294.5 674.2,-298 684.2,-301.5 684.2,-294.5"/>
</g>
<!-- LibCloud -->
<g id="node13" class="node">
<title>LibCloud</title>
<path fill="#e1f5fe" stroke="black" d="M1866.5,-316C1866.5,-316 1813.5,-316 1813.5,-316 1807.5,-316 1801.5,-310 1801.5,-304 1801.5,-304 1801.5,-292 1801.5,-292 1801.5,-286 1807.5,-280 1813.5,-280 1813.5,-280 1866.5,-280 1866.5,-280 1872.5,-280 1878.5,-286 1878.5,-292 1878.5,-292 1878.5,-304 1878.5,-304 1878.5,-310 1872.5,-316 1866.5,-316"/>
<text text-anchor="middle" x="1840" y="-294.3" font-family="Helvetica,sans-Serif" font-size="14.00">LibCloud</text>
</g>
<!-- LibCloud&#45;&gt;Prelude -->
<g id="edge26" class="edge">
<title>LibCloud&#45;&gt;Prelude</title>
<path fill="none" stroke="#666666" d="M1801.15,-308.29C1682.33,-336.69 1324.24,-422.3 1198.35,-452.4"/>
<polygon fill="#666666" stroke="#666666" points="1197.21,-449.07 1188.29,-454.8 1198.83,-455.88 1197.21,-449.07"/>
</g>
<!-- LibCloud&#45;&gt;LibExecution -->
<g id="edge27" class="edge">
<title>LibCloud&#45;&gt;LibExecution</title>
<path fill="none" stroke="#666666" d="M1801.31,-302.47C1736.96,-308.08 1603.88,-319.02 1491,-324 1464.3,-325.18 1035.18,-323.05 1010,-332 996.04,-336.97 982.81,-346.52 972.27,-355.81"/>
<polygon fill="#666666" stroke="#666666" points="969.71,-353.41 964.76,-362.78 974.47,-358.54 969.71,-353.41"/>
</g>
<!-- LibCloud&#45;&gt;LibDB -->
<g id="edge30" class="edge">
<title>LibCloud&#45;&gt;LibDB</title>
<path fill="none" stroke="#666666" d="M1801.3,-302.34C1736.95,-307.77 1603.85,-318.45 1491,-324 1474.4,-324.82 1206.86,-324.56 1192,-332 1182.16,-336.92 1174.07,-345.71 1167.92,-354.43"/>
<polygon fill="#666666" stroke="#666666" points="1164.88,-352.69 1162.42,-362.99 1170.77,-356.47 1164.88,-352.69"/>
</g>
<!-- LibCloud&#45;&gt;LibService -->
<g id="edge29" class="edge">
<title>LibCloud&#45;&gt;LibService</title>
<path fill="none" stroke="#666666" d="M1801.3,-302.41C1736.96,-307.93 1603.86,-318.75 1491,-324 1470.24,-324.96 1136.35,-324.41 1117,-332 1104.41,-336.94 1092.85,-346.23 1083.68,-355.34"/>
<polygon fill="#666666" stroke="#666666" points="1080.91,-353.17 1076.57,-362.84 1085.99,-357.99 1080.91,-353.17"/>
</g>
<!-- LibCloud&#45;&gt;LibBinarySerialization -->
<g id="edge28" class="edge">
<title>LibCloud&#45;&gt;LibBinarySerialization</title>
<path fill="none" stroke="#666666" d="M1801.27,-290.35C1735.82,-277.87 1599.02,-253.62 1482,-245 1449.2,-242.59 330.17,-238.17 298,-245 273.73,-250.15 248.98,-262.8 229.94,-274.44"/>
<polygon fill="#666666" stroke="#666666" points="227.93,-271.57 221.35,-279.87 231.67,-277.49 227.93,-271.57"/>
</g>
<!-- BuiltinCloudExecution -->
<g id="node14" class="node">
<title>BuiltinCloudExecution</title>
<path fill="#e1f5fe" stroke="black" d="M1957,-233C1957,-233 1813,-233 1813,-233 1807,-233 1801,-227 1801,-221 1801,-221 1801,-209 1801,-209 1801,-203 1807,-197 1813,-197 1813,-197 1957,-197 1957,-197 1963,-197 1969,-203 1969,-209 1969,-209 1969,-221 1969,-221 1969,-227 1963,-233 1957,-233"/>
<text text-anchor="middle" x="1885" y="-211.3" font-family="Helvetica,sans-Serif" font-size="14.00">BuiltinCloudExecution</text>
</g>
<!-- BuiltinCloudExecution&#45;&gt;Prelude -->
<g id="edge31" class="edge">
<title>BuiltinCloudExecution&#45;&gt;Prelude</title>
<path fill="none" stroke="#666666" d="M1926.93,-233.15C1932.95,-237.43 1938.34,-242.66 1942,-249 1958.65,-277.88 1962.94,-298.06 1942,-324 1847.72,-440.77 1351.26,-459.45 1198.66,-462.43"/>
<polygon fill="#666666" stroke="#666666" points="1198.22,-458.94 1188.28,-462.62 1198.34,-465.94 1198.22,-458.94"/>
</g>
<!-- BuiltinCloudExecution&#45;&gt;LibExecution -->
<g id="edge32" class="edge">
<title>BuiltinCloudExecution&#45;&gt;LibExecution</title>
<path fill="none" stroke="#666666" d="M1892.21,-233.36C1900.87,-257.33 1911.5,-300.28 1888,-324 1879.42,-332.66 1021.51,-327.96 1010,-332 996.02,-336.91 982.79,-346.46 972.25,-355.76"/>
<polygon fill="#666666" stroke="#666666" points="969.69,-353.36 964.75,-362.74 974.46,-358.49 969.69,-353.36"/>
</g>
<!-- BuiltinCloudExecution&#45;&gt;LibDB -->
<g id="edge33" class="edge">
<title>BuiltinCloudExecution&#45;&gt;LibDB</title>
<path fill="none" stroke="#666666" d="M1909.52,-233.25C1914.18,-237.8 1918.41,-243.1 1921,-249 1934.42,-279.51 1944.44,-300.3 1921,-324 1906.76,-338.4 1210.18,-323.08 1192,-332 1182.12,-336.84 1174.02,-345.62 1167.87,-354.35"/>
<polygon fill="#666666" stroke="#666666" points="1164.83,-352.62 1162.38,-362.92 1170.72,-356.39 1164.83,-352.62"/>
</g>
<!-- BuiltinCloudExecution&#45;&gt;LibBinarySerialization -->
<g id="edge35" class="edge">
<title>BuiltinCloudExecution&#45;&gt;LibBinarySerialization</title>
<path fill="none" stroke="#666666" d="M1800.91,-222.72C1721.18,-228.77 1598.03,-237.25 1491,-241 1457.63,-242.17 321.42,-241.01 289,-249 268.31,-254.1 247.06,-264.6 230.1,-274.48"/>
<polygon fill="#666666" stroke="#666666" points="227.91,-271.71 221.15,-279.87 231.53,-277.71 227.91,-271.71"/>
</g>
<!-- BuiltinCloudExecution&#45;&gt;LibPackageManager -->
<g id="edge36" class="edge">
<title>BuiltinCloudExecution&#45;&gt;LibPackageManager</title>
<path fill="none" stroke="#666666" d="M1800.89,-222.17C1721.14,-227.82 1597.98,-236.03 1491,-241 1370.19,-246.61 1339.77,-242.57 1219,-249 1028,-259.17 804.51,-278.15 684.26,-288.95"/>
<polygon fill="#666666" stroke="#666666" points="683.66,-285.49 674.01,-289.87 684.29,-292.46 683.66,-285.49"/>
</g>
<!-- BuiltinCloudExecution&#45;&gt;LibCloud -->
<g id="edge34" class="edge">
<title>BuiltinCloudExecution&#45;&gt;LibCloud</title>
<path fill="none" stroke="#666666" d="M1875.46,-233.18C1869.37,-244.13 1861.37,-258.54 1854.5,-270.89"/>
<polygon fill="#666666" stroke="#666666" points="1851.33,-269.41 1849.53,-279.85 1857.45,-272.8 1851.33,-269.41"/>
</g>
<!-- BuiltinDarkInternal -->
<g id="node15" class="node">
<title>BuiltinDarkInternal</title>
<path fill="#e1f5fe" stroke="black" d="M2122.5,-233C2122.5,-233 1999.5,-233 1999.5,-233 1993.5,-233 1987.5,-227 1987.5,-221 1987.5,-221 1987.5,-209 1987.5,-209 1987.5,-203 1993.5,-197 1999.5,-197 1999.5,-197 2122.5,-197 2122.5,-197 2128.5,-197 2134.5,-203 2134.5,-209 2134.5,-209 2134.5,-221 2134.5,-221 2134.5,-227 2128.5,-233 2122.5,-233"/>
<text text-anchor="middle" x="2061" y="-211.3" font-family="Helvetica,sans-Serif" font-size="14.00">BuiltinDarkInternal</text>
</g>
<!-- BuiltinDarkInternal&#45;&gt;Prelude -->
<g id="edge37" class="edge">
<title>BuiltinDarkInternal&#45;&gt;Prelude</title>
<path fill="none" stroke="#666666" d="M2055.15,-233.14C2046.64,-256.08 2028.96,-297 2003,-324 1952.6,-376.42 1931.35,-385.13 1862,-407 1737.35,-446.31 1333.58,-458.92 1198.49,-462.09"/>
<polygon fill="#666666" stroke="#666666" points="1198.04,-458.6 1188.12,-462.33 1198.2,-465.6 1198.04,-458.6"/>
</g>
<!-- BuiltinDarkInternal&#45;&gt;LibExecution -->
<g id="edge38" class="edge">
<title>BuiltinDarkInternal&#45;&gt;LibExecution</title>
<path fill="none" stroke="#666666" d="M2044.29,-233.3C2018.23,-258.91 1965.05,-305.84 1909,-324 1861.49,-339.39 1057.12,-315.45 1010,-332 996.02,-336.91 982.79,-346.46 972.25,-355.76"/>
<polygon fill="#666666" stroke="#666666" points="969.69,-353.36 964.75,-362.74 974.46,-358.49 969.69,-353.36"/>
</g>
<!-- BuiltinDarkInternal&#45;&gt;LibDB -->
<g id="edge40" class="edge">
<title>BuiltinDarkInternal&#45;&gt;LibDB</title>
<path fill="none" stroke="#666666" d="M2048.77,-233.21C2029.47,-258.69 1989.27,-305.46 1942,-324 1903.21,-339.22 1229.41,-313.65 1192,-332 1182.12,-336.84 1174.02,-345.62 1167.87,-354.35"/>
<polygon fill="#666666" stroke="#666666" points="1164.83,-352.61 1162.38,-362.92 1170.72,-356.39 1164.83,-352.61"/>
</g>
<!-- BuiltinDarkInternal&#45;&gt;DvalReprDeveloper -->
<g id="edge39" class="edge">
<title>BuiltinDarkInternal&#45;&gt;DvalReprDeveloper</title>
<path fill="none" stroke="#666666" d="M2012.37,-233.11C2001.21,-236.34 1989.3,-239.26 1978,-241 1913.42,-250.96 1453.03,-231.8 1390,-249 1371.17,-254.14 1352.13,-264.5 1336.95,-274.29"/>
<polygon fill="#666666" stroke="#666666" points="1334.86,-271.47 1328.49,-279.94 1338.75,-277.29 1334.86,-271.47"/>
</g>
<!-- BuiltinDarkInternal&#45;&gt;LibCloud -->
<g id="edge41" class="edge">
<title>BuiltinDarkInternal&#45;&gt;LibCloud</title>
<path fill="none" stroke="#666666" d="M2007.69,-233.12C1997.87,-235.97 1987.67,-238.73 1978,-241 1957.37,-245.84 1951.07,-242.19 1931,-249 1911.88,-255.49 1891.89,-265.61 1875.54,-274.88"/>
<polygon fill="#666666" stroke="#666666" points="1873.75,-271.88 1866.86,-279.92 1877.27,-277.93 1873.75,-271.88"/>
</g>
<!-- LibCloudExecution -->
<g id="node16" class="node">
<title>LibCloudExecution</title>
<path fill="#ede7f6" stroke="black" d="M1303,-233C1303,-233 1183,-233 1183,-233 1177,-233 1171,-227 1171,-221 1171,-221 1171,-209 1171,-209 1171,-203 1177,-197 1183,-197 1183,-197 1303,-197 1303,-197 1309,-197 1315,-203 1315,-209 1315,-209 1315,-221 1315,-221 1315,-227 1309,-233 1303,-233"/>
<text text-anchor="middle" x="1243" y="-211.3" font-family="Helvetica,sans-Serif" font-size="14.00">LibCloudExecution</text>
</g>
<!-- LibCloudExecution&#45;&gt;LibExecution -->
<g id="edge42" class="edge">
<title>LibCloudExecution&#45;&gt;LibExecution</title>
<path fill="none" stroke="#666666" d="M1184.27,-233.07C1170.8,-237.67 1156.71,-243.04 1144,-249 1080.56,-278.72 1067.39,-291.83 1010,-332 999.13,-339.61 987.6,-348.46 977.53,-356.48"/>
<polygon fill="#666666" stroke="#666666" points="975.05,-353.98 969.45,-362.97 979.44,-359.43 975.05,-353.98"/>
</g>
<!-- LibCloudExecution&#45;&gt;BuiltinExecution -->
<g id="edge43" class="edge">
<title>LibCloudExecution&#45;&gt;BuiltinExecution</title>
<path fill="none" stroke="#666666" d="M1170.73,-220.03C1074.18,-225.33 897.75,-234.7 747,-241 693.46,-243.24 558.74,-239.54 506,-249 474.12,-254.72 439.66,-266.01 412.44,-276.2"/>
<polygon fill="#666666" stroke="#666666" points="410.86,-273.06 402.76,-279.9 413.35,-279.6 410.86,-273.06"/>
</g>
<!-- LibCloudExecution&#45;&gt;LibCloud -->
<g id="edge44" class="edge">
<title>LibCloudExecution&#45;&gt;LibCloud</title>
<path fill="none" stroke="#666666" d="M1291.34,-233.09C1301.98,-236.24 1313.27,-239.12 1324,-241 1397.19,-253.84 1417.01,-242.15 1491,-249 1598.74,-258.97 1724.25,-278.08 1791.51,-288.94"/>
<polygon fill="#666666" stroke="#666666" points="1790.96,-292.4 1801.4,-290.55 1792.09,-285.49 1790.96,-292.4"/>
</g>
<!-- LibCloudExecution&#45;&gt;BuiltinCloudExecution -->
<g id="edge45" class="edge">
<title>LibCloudExecution&#45;&gt;BuiltinCloudExecution</title>
<path fill="none" stroke="#666666" d="M1264.58,-196.83C1281.82,-183.74 1307.28,-167.46 1333,-162 1357.18,-156.87 1753.82,-156.87 1778,-162 1803.15,-167.34 1829.04,-179.94 1849.05,-191.52"/>
<polygon fill="#666666" stroke="#666666" points="1847.43,-194.62 1857.81,-196.73 1851.01,-188.61 1847.43,-194.62"/>
</g>
<!-- LibCloudExecution&#45;&gt;BuiltinDarkInternal -->
<g id="edge46" class="edge">
<title>LibCloudExecution&#45;&gt;BuiltinDarkInternal</title>
<path fill="none" stroke="#666666" d="M1264.58,-196.83C1281.82,-183.74 1307.28,-167.46 1333,-162 1350.28,-158.33 1951.72,-158.33 1969,-162 1991.26,-166.72 2013.45,-179.22 2030.46,-190.89"/>
<polygon fill="#666666" stroke="#666666" points="2028.68,-193.92 2038.86,-196.88 2032.74,-188.22 2028.68,-193.92"/>
</g>
<!-- LibHttpMiddleware -->
<g id="node17" class="node">
<title>LibHttpMiddleware</title>
<path fill="#ede7f6" stroke="black" d="M1467,-233C1467,-233 1345,-233 1345,-233 1339,-233 1333,-227 1333,-221 1333,-221 1333,-209 1333,-209 1333,-203 1339,-197 1345,-197 1345,-197 1467,-197 1467,-197 1473,-197 1479,-203 1479,-209 1479,-209 1479,-221 1479,-221 1479,-227 1473,-233 1467,-233"/>
<text text-anchor="middle" x="1406" y="-211.3" font-family="Helvetica,sans-Serif" font-size="14.00">LibHttpMiddleware</text>
</g>
<!-- LibHttpMiddleware&#45;&gt;LibExecution -->
<g id="edge47" class="edge">
<title>LibHttpMiddleware&#45;&gt;LibExecution</title>
<path fill="none" stroke="#666666" d="M1356.13,-233.11C1345.62,-236.17 1334.53,-239.02 1324,-241 1278.01,-249.65 1263.52,-234.56 1219,-249 1158.46,-268.64 1157.39,-303.89 1097,-324 1060.16,-336.27 1046.07,-317.63 1010,-332 996.43,-337.41 983.42,-346.84 972.92,-355.92"/>
<polygon fill="#666666" stroke="#666666" points="970.48,-353.41 965.42,-362.72 975.18,-358.6 970.48,-353.41"/>
</g>
<!-- LibHttpMiddleware&#45;&gt;DvalReprDeveloper -->
<g id="edge48" class="edge">
<title>LibHttpMiddleware&#45;&gt;DvalReprDeveloper</title>
<path fill="none" stroke="#666666" d="M1384.79,-233.18C1370.34,-244.88 1351.02,-260.53 1335.13,-273.4"/>
<polygon fill="#666666" stroke="#666666" points="1332.74,-270.83 1327.18,-279.85 1337.15,-276.27 1332.74,-270.83"/>
</g>
<!-- LibHttpMiddleware&#45;&gt;LibCloud -->
<g id="edge49" class="edge">
<title>LibHttpMiddleware&#45;&gt;LibCloud</title>
<path fill="none" stroke="#666666" d="M1479.13,-229.65C1567.84,-246.21 1714.94,-273.66 1791.04,-287.86"/>
<polygon fill="#666666" stroke="#666666" points="1790.82,-291.38 1801.29,-289.78 1792.1,-284.5 1790.82,-291.38"/>
</g>
<!-- BuiltinCliHost -->
<g id="node18" class="node">
<title>BuiltinCliHost</title>
<path fill="#fff8e1" stroke="black" d="M723,-233C723,-233 637,-233 637,-233 631,-233 625,-227 625,-221 625,-221 625,-209 625,-209 625,-203 631,-197 637,-197 637,-197 723,-197 723,-197 729,-197 735,-203 735,-209 735,-209 735,-221 735,-221 735,-227 729,-233 723,-233"/>
<text text-anchor="middle" x="680" y="-211.3" font-family="Helvetica,sans-Serif" font-size="14.00">BuiltinCliHost</text>
</g>
<!-- BuiltinCliHost&#45;&gt;Prelude -->
<g id="edge50" class="edge">
<title>BuiltinCliHost&#45;&gt;Prelude</title>
<path fill="none" stroke="#666666" d="M684,-233.14C690.53,-259.96 703.97,-310.23 716,-324 771.05,-387.02 803.84,-386.63 885,-407 909.37,-413.12 1088.24,-404.35 1111,-415 1121.6,-419.96 1130.71,-428.88 1137.79,-437.69"/>
<polygon fill="#666666" stroke="#666666" points="1135.16,-440.03 1143.93,-445.98 1140.79,-435.86 1135.16,-440.03"/>
</g>
<!-- BuiltinCliHost&#45;&gt;LibExecution -->
<g id="edge51" class="edge">
<title>BuiltinCliHost&#45;&gt;LibExecution</title>
<path fill="none" stroke="#666666" d="M700.71,-233.29C705.97,-238.12 711.42,-243.55 716,-249 741.47,-279.29 732.44,-300.12 764,-324 799.62,-350.95 848.21,-365.01 886.66,-372.31"/>
<polygon fill="#666666" stroke="#666666" points="886.24,-375.79 896.7,-374.1 887.48,-368.9 886.24,-375.79"/>
</g>
<!-- BuiltinCliHost&#45;&gt;BuiltinExecution -->
<g id="edge53" class="edge">
<title>BuiltinCliHost&#45;&gt;BuiltinExecution</title>
<path fill="none" stroke="#666666" d="M624.98,-230.08C608.36,-234.01 590,-238.01 573,-241 543.46,-246.2 535.26,-242.45 506,-249 475.31,-255.87 441.94,-266.77 415.06,-276.44"/>
<polygon fill="#666666" stroke="#666666" points="413.66,-273.23 405.46,-279.94 416.06,-279.8 413.66,-273.23"/>
</g>
<!-- BuiltinCliHost&#45;&gt;BuiltinCli -->
<g id="edge54" class="edge">
<title>BuiltinCliHost&#45;&gt;BuiltinCli</title>
<path fill="none" stroke="#666666" d="M624.77,-222.48C572.39,-228.35 491.45,-236.72 421,-241 403.36,-242.07 119.24,-242.03 103,-249 91.44,-253.96 81.18,-263.13 73.14,-272.13"/>
<polygon fill="#666666" stroke="#666666" points="70.38,-269.97 66.67,-279.89 75.76,-274.45 70.38,-269.97"/>
</g>
<!-- BuiltinCliHost&#45;&gt;LibPackageManager -->
<g id="edge55" class="edge">
<title>BuiltinCliHost&#45;&gt;LibPackageManager</title>
<path fill="none" stroke="#666666" d="M662.4,-233.18C650.62,-244.67 634.96,-259.96 621.91,-272.69"/>
<polygon fill="#666666" stroke="#666666" points="619.29,-270.36 614.58,-279.85 624.18,-275.37 619.29,-270.36"/>
</g>
<!-- BuiltinCliHost&#45;&gt;DvalReprDeveloper -->
<g id="edge52" class="edge">
<title>BuiltinCliHost&#45;&gt;DvalReprDeveloper</title>
<path fill="none" stroke="#666666" d="M735,-223.12C844.48,-237.28 1090.32,-269.09 1220.83,-285.98"/>
<polygon fill="#666666" stroke="#666666" points="1220.43,-289.46 1230.79,-287.27 1221.33,-282.51 1220.43,-289.46"/>
</g>
<!-- Cli -->
<g id="node19" class="node">
<title>Cli</title>
<path fill="#ffcdd2" stroke="black" stroke-width="2" d="M712,-150C712,-150 682,-150 682,-150 676,-150 670,-144 670,-138 670,-138 670,-126 670,-126 670,-120 676,-114 682,-114 682,-114 712,-114 712,-114 718,-114 724,-120 724,-126 724,-126 724,-138 724,-138 724,-144 718,-150 712,-150"/>
<text text-anchor="middle" x="697" y="-128.3" font-family="Helvetica,sans-Serif" font-size="14.00">Cli</text>
</g>
<!-- Cli&#45;&gt;LibExecution -->
<g id="edge56" class="edge">
<title>Cli&#45;&gt;LibExecution</title>
<path fill="none" stroke="#666666" d="M721.21,-150.24C725.11,-152.9 729.14,-155.56 733,-158 739.06,-161.83 741.7,-161.17 747,-166 810.45,-223.79 795.5,-265.19 858,-324 871.78,-336.96 889.02,-348.49 904.78,-357.66"/>
<polygon fill="#666666" stroke="#666666" points="903.42,-360.91 913.85,-362.78 906.86,-354.82 903.42,-360.91"/>
</g>
<!-- Cli&#45;&gt;LibPackageManager -->
<g id="edge58" class="edge">
<title>Cli&#45;&gt;LibPackageManager</title>
<path fill="none" stroke="#666666" d="M672.71,-150.18C667.41,-153.24 661.68,-156.06 656,-158 640.55,-163.26 593.89,-153.85 583,-166 557.62,-194.31 571.1,-241.08 583.68,-270.41"/>
<polygon fill="#666666" stroke="#666666" points="580.54,-271.96 587.85,-279.63 586.92,-269.08 580.54,-271.96"/>
</g>
<!-- Cli&#45;&gt;DvalReprDeveloper -->
<g id="edge57" class="edge">
<title>Cli&#45;&gt;DvalReprDeveloper</title>
<path fill="none" stroke="#666666" d="M717.19,-150.09C722.08,-153.33 727.49,-156.24 733,-158 753.06,-164.4 1476.19,-151.03 1491,-166 1514.45,-189.69 1513.62,-216.52 1491,-241 1483.36,-249.27 1400.76,-245.68 1390,-249 1371.62,-254.67 1352.87,-264.87 1337.77,-274.42"/>
<polygon fill="#666666" stroke="#666666" points="1335.79,-271.53 1329.32,-279.92 1339.61,-277.39 1335.79,-271.53"/>
</g>
<!-- Cli&#45;&gt;BuiltinCliHost -->
<g id="edge59" class="edge">
<title>Cli&#45;&gt;BuiltinCliHost</title>
<path fill="none" stroke="#666666" d="M693.39,-150.18C691.16,-160.81 688.25,-174.69 685.71,-186.8"/>
<polygon fill="#666666" stroke="#666666" points="682.23,-186.34 683.6,-196.85 689.08,-187.78 682.23,-186.34"/>
</g>
<!-- LocalExec -->
<g id="node20" class="node">
<title>LocalExec</title>
<path fill="#ffcdd2" stroke="black" d="M814,-150C814,-150 754,-150 754,-150 748,-150 742,-144 742,-138 742,-138 742,-126 742,-126 742,-120 748,-114 754,-114 754,-114 814,-114 814,-114 820,-114 826,-120 826,-126 826,-126 826,-138 826,-138 826,-144 820,-150 814,-150"/>
<text text-anchor="middle" x="784" y="-128.3" font-family="Helvetica,sans-Serif" font-size="14.00">LocalExec</text>
</g>
<!-- LocalExec&#45;&gt;LibExecution -->
<g id="edge60" class="edge">
<title>LocalExec&#45;&gt;LibExecution</title>
<path fill="none" stroke="#666666" d="M795.6,-150.37C824.25,-193.25 898.45,-304.33 932.04,-354.61"/>
<polygon fill="#666666" stroke="#666666" points="929.16,-356.61 937.63,-362.98 934.98,-352.72 929.16,-356.61"/>
</g>
<!-- LocalExec&#45;&gt;LibDB -->
<g id="edge63" class="edge">
<title>LocalExec&#45;&gt;LibDB</title>
<path fill="none" stroke="#666666" d="M817.03,-150.09C826.45,-155.1 836.69,-160.67 846,-166 968.23,-236.02 1010.67,-238.46 1116,-332 1123.47,-338.63 1130.58,-346.87 1136.58,-354.63"/>
<polygon fill="#666666" stroke="#666666" points="1133.86,-356.83 1142.63,-362.78 1139.48,-352.66 1133.86,-356.83"/>
</g>
<!-- LocalExec&#45;&gt;BuiltinExecution -->
<g id="edge65" class="edge">
<title>LocalExec&#45;&gt;BuiltinExecution</title>
<path fill="none" stroke="#666666" d="M754.3,-150.02C747.5,-153.22 740.16,-156.14 733,-158 669.25,-174.61 648.07,-147 585,-166 509.14,-188.85 431.91,-242.44 391.24,-273.53"/>
<polygon fill="#666666" stroke="#666666" points="388.9,-270.92 383.13,-279.81 393.18,-276.46 388.9,-270.92"/>
</g>
<!-- LocalExec&#45;&gt;BuiltinCli -->
<g id="edge66" class="edge">
<title>LocalExec&#45;&gt;BuiltinCli</title>
<path fill="none" stroke="#666666" d="M754.61,-150.04C747.73,-153.28 740.28,-156.21 733,-158 668.46,-173.88 499.34,-153.83 434,-166 336.16,-184.22 320.46,-220.83 223,-241 196.83,-246.42 127.34,-237.96 103,-249 91.83,-254.07 81.8,-262.96 73.84,-271.72"/>
<polygon fill="#666666" stroke="#666666" points="70.94,-269.73 67.13,-279.61 76.27,-274.26 70.94,-269.73"/>
</g>
<!-- LocalExec&#45;&gt;LibPackageManager -->
<g id="edge64" class="edge">
<title>LocalExec&#45;&gt;LibPackageManager</title>
<path fill="none" stroke="#666666" d="M754.01,-150.08C747.28,-153.23 740.05,-156.12 733,-158 720.09,-161.45 622.71,-156.81 613,-166 585.29,-192.23 586.86,-239.78 591.34,-269.8"/>
<polygon fill="#666666" stroke="#666666" points="587.95,-270.73 593.08,-280 594.85,-269.55 587.95,-270.73"/>
</g>
<!-- LocalExec&#45;&gt;LibParser -->
<g id="edge61" class="edge">
<title>LocalExec&#45;&gt;LibParser</title>
<path fill="none" stroke="#666666" d="M813.37,-150.12C820.25,-153.36 827.71,-156.26 835,-158 853.32,-162.36 1499.76,-152.6 1513,-166 1536.43,-189.71 1527.84,-211.15 1513,-241 1506.3,-254.48 1494.63,-265.58 1482.51,-274.24"/>
<polygon fill="#666666" stroke="#666666" points="1480.49,-271.39 1474.11,-279.85 1484.37,-277.21 1480.49,-271.39"/>
</g>
<!-- LocalExec&#45;&gt;LibCloud -->
<g id="edge62" class="edge">
<title>LocalExec&#45;&gt;LibCloud</title>
<path fill="none" stroke="#666666" d="M813.37,-150.13C820.25,-153.36 827.71,-156.27 835,-158 872.78,-166.99 1498.89,-149.4 1534,-166 1573.35,-184.61 1559.87,-218.27 1597,-241 1657.28,-277.9 1739.5,-290.51 1791.16,-294.81"/>
<polygon fill="#666666" stroke="#666666" points="1791.15,-298.31 1801.39,-295.58 1791.68,-291.33 1791.15,-298.31"/>
</g>
<!-- LocalExec&#45;&gt;BuiltinDarkInternal -->
<g id="edge68" class="edge">
<title>LocalExec&#45;&gt;BuiltinDarkInternal</title>
<path fill="none" stroke="#666666" d="M813.09,-150.02C820.05,-153.3 827.61,-156.26 835,-158 896.81,-172.56 1916.73,-149.33 1978,-166 1996.66,-171.08 2015.48,-181.44 2030.47,-191.23"/>
<polygon fill="#666666" stroke="#666666" points="2028.58,-194.18 2038.83,-196.89 2032.51,-188.39 2028.58,-194.18"/>
</g>
<!-- LocalExec&#45;&gt;BuiltinCliHost -->
<g id="edge67" class="edge">
<title>LocalExec&#45;&gt;BuiltinCliHost</title>
<path fill="none" stroke="#666666" d="M761.94,-150.18C746.91,-161.88 726.82,-177.53 710.3,-190.4"/>
<polygon fill="#666666" stroke="#666666" points="707.76,-187.94 702.02,-196.85 712.06,-193.46 707.76,-187.94"/>
</g>
<!-- BwdServer -->
<g id="node21" class="node">
<title>BwdServer</title>
<path fill="#ffcdd2" stroke="black" d="M1053,-150C1053,-150 985,-150 985,-150 979,-150 973,-144 973,-138 973,-138 973,-126 973,-126 973,-120 979,-114 985,-114 985,-114 1053,-114 1053,-114 1059,-114 1065,-120 1065,-126 1065,-126 1065,-138 1065,-138 1065,-144 1059,-150 1053,-150"/>
<text text-anchor="middle" x="1019" y="-128.3" font-family="Helvetica,sans-Serif" font-size="14.00">BwdServer</text>
</g>
<!-- BwdServer&#45;&gt;LibExecution -->
<g id="edge69" class="edge">
<title>BwdServer&#45;&gt;LibExecution</title>
<path fill="none" stroke="#666666" d="M1005.8,-150.31C990.11,-172.01 964.7,-211 954,-249 944.24,-283.66 944.63,-325.51 946.36,-352.43"/>
<polygon fill="#666666" stroke="#666666" points="942.89,-352.93 947.12,-362.64 949.87,-352.41 942.89,-352.93"/>
</g>
<!-- BwdServer&#45;&gt;LibService -->
<g id="edge70" class="edge">
<title>BwdServer&#45;&gt;LibService</title>
<path fill="none" stroke="#666666" d="M1022.09,-150.37C1029.65,-192.81 1049.11,-302.03 1058.19,-353.03"/>
<polygon fill="#666666" stroke="#666666" points="1054.77,-353.75 1059.97,-362.98 1061.66,-352.52 1054.77,-353.75"/>
</g>
<!-- BwdServer&#45;&gt;LibCloud -->
<g id="edge72" class="edge">
<title>BwdServer&#45;&gt;LibCloud</title>
<path fill="none" stroke="#666666" d="M1050.8,-150.12C1058.21,-153.35 1066.22,-156.26 1074,-158 1090.24,-161.63 1658.88,-157.19 1673,-166 1704.71,-185.77 1683.8,-215.37 1711,-241 1733.45,-262.16 1765.17,-276.07 1791.53,-284.74"/>
<polygon fill="#666666" stroke="#666666" points="1790.76,-288.16 1801.34,-287.81 1792.85,-281.48 1790.76,-288.16"/>
</g>
<!-- BwdServer&#45;&gt;LibCloudExecution -->
<g id="edge71" class="edge">
<title>BwdServer&#45;&gt;LibCloudExecution</title>
<path fill="none" stroke="#666666" d="M1053.1,-150.09C1059.91,-153.05 1067.09,-155.85 1074,-158 1093.4,-164.03 1099.44,-160.53 1119,-166 1144.68,-173.18 1172.43,-183.65 1195.15,-192.98"/>
<polygon fill="#666666" stroke="#666666" points="1193.98,-196.29 1204.56,-196.9 1196.67,-189.83 1193.98,-196.29"/>
</g>
<!-- BwdServer&#45;&gt;LibHttpMiddleware -->
<g id="edge73" class="edge">
<title>BwdServer&#45;&gt;LibHttpMiddleware</title>
<path fill="none" stroke="#666666" d="M1050.82,-150.01C1058.24,-153.25 1066.24,-156.19 1074,-158 1128.13,-170.63 1270.59,-150.6 1324,-166 1342.11,-171.22 1360.4,-181.35 1375.09,-190.96"/>
<polygon fill="#666666" stroke="#666666" points="1373.5,-194.11 1383.74,-196.83 1377.43,-188.32 1373.5,-194.11"/>
</g>
<!-- QueueWorker -->
<g id="node22" class="node">
<title>QueueWorker</title>
<path fill="#ffcdd2" stroke="black" d="M942.5,-150C942.5,-150 855.5,-150 855.5,-150 849.5,-150 843.5,-144 843.5,-138 843.5,-138 843.5,-126 843.5,-126 843.5,-120 849.5,-114 855.5,-114 855.5,-114 942.5,-114 942.5,-114 948.5,-114 954.5,-120 954.5,-126 954.5,-126 954.5,-138 954.5,-138 954.5,-144 948.5,-150 942.5,-150"/>
<text text-anchor="middle" x="899" y="-128.3" font-family="Helvetica,sans-Serif" font-size="14.00">QueueWorker</text>
</g>
<!-- QueueWorker&#45;&gt;LibExecution -->
<g id="edge74" class="edge">
<title>QueueWorker&#45;&gt;LibExecution</title>
<path fill="none" stroke="#666666" d="M898.05,-150.1C896.68,-184.12 896.21,-262.35 916,-324 919.36,-334.48 924.95,-345.1 930.58,-354.23"/>
<polygon fill="#666666" stroke="#666666" points="927.77,-356.32 936.15,-362.81 933.64,-352.51 927.77,-356.32"/>
</g>
<!-- QueueWorker&#45;&gt;LibDB -->
<g id="edge77" class="edge">
<title>QueueWorker&#45;&gt;LibDB</title>
<path fill="none" stroke="#666666" d="M937.6,-150.01C946.15,-153.16 955.26,-156.07 964,-158 989.45,-163.63 1058.59,-152.7 1081,-166 1145.35,-204.17 1154.34,-304.11 1154.74,-352.7"/>
<polygon fill="#666666" stroke="#666666" points="1151.24,-352.78 1154.7,-362.79 1158.24,-352.81 1151.24,-352.78"/>
</g>
<!-- QueueWorker&#45;&gt;LibService -->
<g id="edge75" class="edge">
<title>QueueWorker&#45;&gt;LibService</title>
<path fill="none" stroke="#666666" d="M910.53,-150.37C939.01,-193.25 1012.76,-304.33 1046.14,-354.61"/>
<polygon fill="#666666" stroke="#666666" points="1043.25,-356.58 1051.7,-362.98 1049.08,-352.71 1043.25,-356.58"/>
</g>
<!-- QueueWorker&#45;&gt;LibCloud -->
<g id="edge76" class="edge">
<title>QueueWorker&#45;&gt;LibCloud</title>
<path fill="none" stroke="#666666" d="M936.83,-150.13C945.58,-153.36 954.98,-156.27 964,-158 998.54,-164.64 1564.55,-152.44 1597,-166 1640.79,-184.29 1632.57,-216.15 1673,-241 1709.75,-263.59 1756.71,-278.29 1791.47,-286.93"/>
<polygon fill="#666666" stroke="#666666" points="1790.84,-290.38 1801.38,-289.32 1792.48,-283.58 1790.84,-290.38"/>
</g>
<!-- QueueWorker&#45;&gt;LibCloudExecution -->
<g id="edge78" class="edge">
<title>QueueWorker&#45;&gt;LibCloudExecution</title>
<path fill="none" stroke="#666666" d="M937.58,-150.12C946.13,-153.27 955.25,-156.14 964,-158 1031.47,-172.34 1051.54,-151.59 1119,-166 1146.28,-171.83 1175.44,-182.85 1198.62,-192.86"/>
<polygon fill="#666666" stroke="#666666" points="1197.28,-196.1 1207.84,-196.93 1200.1,-189.69 1197.28,-196.1"/>
</g>
<!-- CronChecker -->
<g id="node23" class="node">
<title>CronChecker</title>
<path fill="#ffcdd2" stroke="black" d="M1274.5,-150C1274.5,-150 1193.5,-150 1193.5,-150 1187.5,-150 1181.5,-144 1181.5,-138 1181.5,-138 1181.5,-126 1181.5,-126 1181.5,-120 1187.5,-114 1193.5,-114 1193.5,-114 1274.5,-114 1274.5,-114 1280.5,-114 1286.5,-120 1286.5,-126 1286.5,-126 1286.5,-138 1286.5,-138 1286.5,-144 1280.5,-150 1274.5,-150"/>
<text text-anchor="middle" x="1234" y="-128.3" font-family="Helvetica,sans-Serif" font-size="14.00">CronChecker</text>
</g>
<!-- CronChecker&#45;&gt;LibExecution -->
<g id="edge79" class="edge">
<title>CronChecker&#45;&gt;LibExecution</title>
<path fill="none" stroke="#666666" d="M1191.29,-150.17C1180.56,-154.92 1169.2,-160.34 1159,-166 1107.26,-194.7 1102.69,-216.13 1049,-241 1036.87,-246.62 1029.97,-240.09 1020,-249 993.24,-272.93 1007.41,-292.6 990,-324 984.18,-334.49 976.69,-345.29 969.71,-354.57"/>
<polygon fill="#666666" stroke="#666666" points="966.84,-352.56 963.5,-362.61 972.38,-356.83 966.84,-352.56"/>
</g>
<!-- CronChecker&#45;&gt;LibCloud -->
<g id="edge80" class="edge">
<title>CronChecker&#45;&gt;LibCloud</title>
<path fill="none" stroke="#666666" d="M1286.57,-133.57C1409.93,-135.31 1710.45,-141.99 1749,-166 1781.61,-186.32 1769.84,-209.61 1792,-241 1799.5,-251.63 1808.6,-262.63 1816.86,-272.05"/>
<polygon fill="#666666" stroke="#666666" points="1814.27,-274.41 1823.54,-279.54 1819.49,-269.75 1814.27,-274.41"/>
</g>
<!-- ProdExec -->
<g id="node24" class="node">
<title>ProdExec</title>
<path fill="#ffcdd2" stroke="black" d="M1151,-150C1151,-150 1095,-150 1095,-150 1089,-150 1083,-144 1083,-138 1083,-138 1083,-126 1083,-126 1083,-120 1089,-114 1095,-114 1095,-114 1151,-114 1151,-114 1157,-114 1163,-120 1163,-126 1163,-126 1163,-138 1163,-138 1163,-144 1157,-150 1151,-150"/>
<text text-anchor="middle" x="1123" y="-128.3" font-family="Helvetica,sans-Serif" font-size="14.00">ProdExec</text>
</g>
<!-- ProdExec&#45;&gt;LibExecution -->
<g id="edge81" class="edge">
<title>ProdExec&#45;&gt;LibExecution</title>
<path fill="none" stroke="#666666" d="M1096.35,-150.12C1066.84,-170.38 1019.79,-206.74 992,-249 970.78,-281.28 959.22,-324.92 953.58,-352.77"/>
<polygon fill="#666666" stroke="#666666" points="950.14,-352.14 951.7,-362.62 957.02,-353.45 950.14,-352.14"/>
</g>
<!-- ProdExec&#45;&gt;LibCloud -->
<g id="edge82" class="edge">
<title>ProdExec&#45;&gt;LibCloud</title>
<path fill="none" stroke="#666666" d="M1151.77,-150.11C1158.52,-153.34 1165.83,-156.25 1173,-158 1202.04,-165.08 1685.65,-150.16 1711,-166 1742.69,-185.8 1723.69,-213.51 1749,-241 1761.39,-254.46 1777.75,-265.86 1793.17,-274.8"/>
<polygon fill="#666666" stroke="#666666" points="1791.66,-277.96 1802.1,-279.76 1795.06,-271.85 1791.66,-277.96"/>
</g>
<!-- TestUtils -->
<g id="node25" class="node">
<title>TestUtils</title>
<path fill="#f5f5f5" stroke="black" d="M602,-150C602,-150 552,-150 552,-150 546,-150 540,-144 540,-138 540,-138 540,-126 540,-126 540,-120 546,-114 552,-114 552,-114 602,-114 602,-114 608,-114 614,-120 614,-126 614,-126 614,-138 614,-138 614,-144 608,-150 602,-150"/>
<text text-anchor="middle" x="577" y="-128.3" font-family="Helvetica,sans-Serif" font-size="14.00">TestUtils</text>
</g>
<!-- TestUtils&#45;&gt;LibExecution -->
<g id="edge83" class="edge">
<title>TestUtils&#45;&gt;LibExecution</title>
<path fill="none" stroke="#666666" d="M539.6,-137.28C477.9,-144.52 360.98,-159.07 355,-166 333.23,-191.24 332.59,-216.32 355,-241 367.46,-254.72 422.59,-238.71 438,-249 469.42,-269.97 446.81,-302.68 478,-324 479.05,-324.72 759.23,-357.71 886.91,-372.71"/>
<polygon fill="#666666" stroke="#666666" points="886.59,-376.2 896.93,-373.89 887.41,-369.24 886.59,-376.2"/>
</g>
<!-- TestUtils&#45;&gt;LibDB -->
<g id="edge86" class="edge">
<title>TestUtils&#45;&gt;LibDB</title>
<path fill="none" stroke="#666666" d="M539.94,-137.59C506.52,-142.59 460.97,-151.81 450,-166 429.61,-192.37 430.88,-213.7 450,-241 455.97,-249.52 464.37,-241.93 472,-249 498.85,-273.87 475.37,-303.97 506,-324 534.37,-342.55 1085.59,-317.04 1116,-332 1125.87,-336.86 1133.97,-345.63 1140.12,-354.36"/>
<polygon fill="#666666" stroke="#666666" points="1137.27,-356.4 1145.61,-362.93 1143.16,-352.62 1137.27,-356.4"/>
</g>
<!-- TestUtils&#45;&gt;BuiltinExecution -->
<g id="edge84" class="edge">
<title>TestUtils&#45;&gt;BuiltinExecution</title>
<path fill="none" stroke="#666666" d="M539.88,-135.04C471.56,-139.16 331.49,-149.55 317,-166 294.96,-191.01 305.93,-209.56 317,-241 321.04,-252.47 328.52,-263.32 336.24,-272.36"/>
<polygon fill="#666666" stroke="#666666" points="333.7,-274.76 343.01,-279.81 338.88,-270.06 333.7,-274.76"/>
</g>
<!-- TestUtils&#45;&gt;BuiltinCli -->
<g id="edge85" class="edge">
<title>TestUtils&#45;&gt;BuiltinCli</title>
<path fill="none" stroke="#666666" d="M539.78,-134.18C486.18,-136.61 384.52,-143.96 301,-166 208.74,-190.34 182.23,-195.82 103,-249 93.36,-255.47 84.03,-264.07 76.2,-272.2"/>
<polygon fill="#666666" stroke="#666666" points="73.42,-270.05 69.19,-279.77 78.56,-274.81 73.42,-270.05"/>
</g>
<!-- TestUtils&#45;&gt;LibPackageManager -->
<g id="edge87" class="edge">
<title>TestUtils&#45;&gt;LibPackageManager</title>
<path fill="none" stroke="#666666" d="M539.84,-133.68C515.44,-136.3 485.15,-144.17 469,-166 449.17,-192.79 448.07,-215.06 469,-241 479.57,-254.09 490.19,-243.24 506,-249 524.52,-255.74 543.98,-265.59 560.13,-274.61"/>
<polygon fill="#666666" stroke="#666666" points="558.81,-277.89 569.23,-279.8 562.27,-271.81 558.81,-277.89"/>
</g>
<!-- TestUtils&#45;&gt;LibCloud -->
<g id="edge89" class="edge">
<title>TestUtils&#45;&gt;LibCloud</title>
<path fill="none" stroke="#666666" d="M614.09,-146.24C627.73,-150.63 643.42,-155.13 658,-158 696.97,-165.68 707.65,-160.66 747,-166 931.43,-191.02 973.85,-222.03 1159,-241 1305.83,-256.04 1343.88,-237.15 1491,-249 1598.85,-257.69 1724.32,-277.29 1791.54,-288.58"/>
<polygon fill="#666666" stroke="#666666" points="1790.98,-292.03 1801.42,-290.25 1792.14,-285.13 1790.98,-292.03"/>
</g>
<!-- TestUtils&#45;&gt;LibCloudExecution -->
<g id="edge88" class="edge">
<title>TestUtils&#45;&gt;LibCloudExecution</title>
<path fill="none" stroke="#666666" d="M614.4,-146.88C627.94,-151.28 643.48,-155.62 658,-158 725.78,-169.12 898.65,-159.21 967,-166 1032.61,-172.52 1106.13,-185.59 1160.78,-196.45"/>
<polygon fill="#666666" stroke="#666666" points="1160.27,-199.92 1170.76,-198.45 1161.64,-193.06 1160.27,-199.92"/>
</g>
<!-- Tests -->
<g id="node26" class="node">
<title>Tests</title>
<path fill="#f5f5f5" stroke="black" d="M602,-75C602,-75 572,-75 572,-75 566,-75 560,-69 560,-63 560,-63 560,-51 560,-51 560,-45 566,-39 572,-39 572,-39 602,-39 602,-39 608,-39 614,-45 614,-51 614,-51 614,-63 614,-63 614,-69 608,-75 602,-75"/>
<text text-anchor="middle" x="587" y="-53.3" font-family="Helvetica,sans-Serif" font-size="14.00">Tests</text>
</g>
<!-- Tests&#45;&gt;Prelude -->
<g id="edge90" class="edge">
<title>Tests&#45;&gt;Prelude</title>
<path fill="none" stroke="#666666" d="M614.28,-57.97C817.48,-57.83 2089.29,-57.92 2166,-83 2261.76,-114.31 2351,-113.25 2351,-214 2351,-214 2351,-214 2351,-299 2351,-417.73 1414.66,-454.73 1198.26,-461.69"/>
<polygon fill="#666666" stroke="#666666" points="1198.1,-458.2 1188.21,-462.01 1198.32,-465.19 1198.1,-458.2"/>
</g>
<!-- Tests&#45;&gt;LibExecution -->
<g id="edge92" class="edge">
<title>Tests&#45;&gt;LibExecution</title>
<path fill="none" stroke="#666666" d="M614.26,-58.11C787.52,-58.86 1732.13,-63.81 1859,-83 1990.71,-102.92 2066.9,-59.56 2147,-166 2189.22,-222.11 2196.48,-274.17 2147,-324 2135.87,-335.21 1024.9,-326.78 1010,-332 996.01,-336.9 982.79,-346.45 972.25,-355.74"/>
<polygon fill="#666666" stroke="#666666" points="969.68,-353.35 964.75,-362.72 974.45,-358.48 969.68,-353.35"/>
</g>
<!-- Tests&#45;&gt;LibTreeSitter -->
<g id="edge93" class="edge">
<title>Tests&#45;&gt;LibTreeSitter</title>
<path fill="none" stroke="#666666" d="M614.21,-57.92C812.82,-57.4 2033.58,-55.35 2106,-83 2158.69,-103.12 2178.54,-114.71 2202,-166 2231.36,-230.19 2239.06,-277.45 2186,-324 2120.66,-381.33 1511.64,-381.94 1313.77,-380.6"/>
<polygon fill="#666666" stroke="#666666" points="1313.57,-377.1 1303.55,-380.53 1313.52,-384.1 1313.57,-377.1"/>
</g>
<!-- Tests&#45;&gt;LibDB -->
<g id="edge96" class="edge">
<title>Tests&#45;&gt;LibDB</title>
<path fill="none" stroke="#666666" d="M614.3,-58.13C805.85,-59.1 1942.59,-65.54 2013,-83 2092.29,-102.66 2134.22,-96.4 2177,-166 2214.43,-226.89 2205.33,-282.69 2147,-324 2125.35,-339.33 1215.83,-320.35 1192,-332 1182.12,-336.83 1174.01,-345.6 1167.87,-354.34"/>
<polygon fill="#666666" stroke="#666666" points="1164.82,-352.6 1162.38,-362.91 1170.72,-356.38 1164.82,-352.6"/>
</g>
<!-- Tests&#45;&gt;LibBinarySerialization -->
<g id="edge97" class="edge">
<title>Tests&#45;&gt;LibBinarySerialization</title>
<path fill="none" stroke="#666666" d="M559.78,-58.91C492.99,-61.35 324.87,-68.85 304,-83 238.81,-127.2 210.98,-223.01 200.9,-269.96"/>
<polygon fill="#666666" stroke="#666666" points="197.42,-269.5 198.86,-279.99 204.28,-270.89 197.42,-269.5"/>
</g>
<!-- Tests&#45;&gt;BuiltinExecution -->
<g id="edge94" class="edge">
<title>Tests&#45;&gt;BuiltinExecution</title>
<path fill="none" stroke="#666666" d="M559.71,-58.76C500.56,-62.05 361.06,-79.12 301,-166 282.04,-193.42 287.59,-210.48 301,-241 306.58,-253.69 316.61,-264.77 326.94,-273.64"/>
<polygon fill="#666666" stroke="#666666" points="324.85,-276.45 334.84,-279.99 329.24,-271 324.85,-276.45"/>
</g>
<!-- Tests&#45;&gt;LibPackageManager -->
<g id="edge95" class="edge">
<title>Tests&#45;&gt;LibPackageManager</title>
<path fill="none" stroke="#666666" d="M614.27,-72.41C617.78,-75.43 620.88,-78.95 623,-83 638.45,-112.54 644.9,-132.87 623,-158 605.9,-177.62 582.1,-146.38 565,-166 543.1,-191.13 556.44,-208.78 565,-241 567.8,-251.55 573.11,-262.19 578.61,-271.32"/>
<polygon fill="#666666" stroke="#666666" points="575.75,-273.34 584.09,-279.88 581.65,-269.57 575.75,-273.34"/>
</g>
<!-- Tests&#45;&gt;LibParser -->
<g id="edge91" class="edge">
<title>Tests&#45;&gt;LibParser</title>
<path fill="none" stroke="#666666" d="M614.2,-57.72C729.77,-56.71 1180.39,-54.72 1319,-83 1419.36,-103.48 1476.06,-81.53 1534,-166 1552.85,-193.49 1550.54,-212.06 1534,-241 1523.97,-258.55 1506.05,-271.15 1488.46,-279.9"/>
<polygon fill="#666666" stroke="#666666" points="1486.93,-276.75 1479.33,-284.13 1489.88,-283.1 1486.93,-276.75"/>
</g>
<!-- Tests&#45;&gt;BuiltinCloudExecution -->
<g id="edge98" class="edge">
<title>Tests&#45;&gt;BuiltinCloudExecution</title>
<path fill="none" stroke="#666666" d="M614.1,-57.91C768.49,-57.49 1533.69,-56.78 1635,-83 1719.45,-104.86 1807.35,-159.67 1853.05,-191.03"/>
<polygon fill="#666666" stroke="#666666" points="1851.14,-193.96 1861.35,-196.78 1855.13,-188.21 1851.14,-193.96"/>
</g>
<!-- Tests&#45;&gt;BuiltinDarkInternal -->
<g id="edge99" class="edge">
<title>Tests&#45;&gt;BuiltinDarkInternal</title>
<path fill="none" stroke="#666666" d="M614.1,-58.1C776.54,-58.78 1617.93,-63.24 1731,-83 1845.08,-102.94 1872.46,-118.33 1978,-166 1994.21,-173.32 2011.34,-182.89 2025.81,-191.56"/>
<polygon fill="#666666" stroke="#666666" points="2024.07,-194.6 2034.44,-196.81 2027.71,-188.62 2024.07,-194.6"/>
</g>
<!-- Tests&#45;&gt;LibCloudExecution -->
<g id="edge100" class="edge">
<title>Tests&#45;&gt;LibCloudExecution</title>
<path fill="none" stroke="#666666" d="M614.3,-57.91C741.96,-57.63 1274.81,-57.95 1299,-83 1322.15,-106.98 1311.76,-127.2 1299,-158 1293.93,-170.23 1284.76,-181.18 1275.28,-190.08"/>
<polygon fill="#666666" stroke="#666666" points="1272.88,-187.53 1267.69,-196.77 1277.51,-192.79 1272.88,-187.53"/>
</g>
<!-- Tests&#45;&gt;BwdServer -->
<g id="edge101" class="edge">
<title>Tests&#45;&gt;BwdServer</title>
<path fill="none" stroke="#666666" d="M614.05,-57.57C689.46,-56.72 900.65,-56.82 964,-83 976.44,-88.14 988.03,-97.29 997.33,-106.22"/>
<polygon fill="#666666" stroke="#666666" points="995.07,-108.91 1004.58,-113.59 1000.06,-104 995.07,-108.91"/>
</g>
<!-- Tests&#45;&gt;QueueWorker -->
<g id="edge102" class="edge">
<title>Tests&#45;&gt;QueueWorker</title>
<path fill="none" stroke="#666666" d="M614.12,-58.9C669.84,-61.05 795.29,-67.51 835,-83 849.16,-88.52 862.91,-98.1 874.01,-107.25"/>
<polygon fill="#666666" stroke="#666666" points="871.73,-109.9 881.6,-113.77 876.3,-104.6 871.73,-109.9"/>
</g>
<!-- Tests&#45;&gt;TestUtils -->
<g id="edge103" class="edge">
<title>Tests&#45;&gt;TestUtils</title>
<path fill="none" stroke="#666666" d="M584.63,-75.3C583.47,-83.75 582.05,-94.13 580.75,-103.63"/>
<polygon fill="#666666" stroke="#666666" points="577.24,-103.44 579.35,-113.82 584.18,-104.39 577.24,-103.44"/>
</g>
</g>
</svg>
